
<svg width="40px" height="40px" viewBox="0 0 40 40" version="1.1" xmlns="http://www.w3.org/2000/svg" xmlns:xlink="http://www.w3.org/1999/xlink">
    <g id="Desktop" stroke="none" stroke-width="1" fill="none" fill-rule="evenodd">
        <g id="Bouw-detail-(beeld+tekst)" transform="translate(-845.000000, -1581.000000)">
            <g id="share" transform="translate(845.000000, 1538.000000)">
                <g id="facebook" transform="translate(0.000000, 43.000000)">
                    <rect id="Background" stroke="#000000" transform="translate(20.000000, 20.000000) scale(-1, 1) translate(-20.000000, -20.000000) " x="0.5" y="0.5" width="39" height="39"></rect>
                    <path d="M20.8052878,26.2619048 L20.8052878,20.5397799 L22.7297692,20.5397799 L23.0120265,18.3073814 L20.8052878,18.3073814 L20.8052878,16.8832652 C20.8052878,16.7207526 20.8202558,16.5732105 20.8501923,16.4406344 C20.8801289,16.3080584 20.9335861,16.1947289 21.0105658,16.1006427 C21.0875454,16.0065565 21.1987366,15.9317163 21.3441426,15.8761199 C21.4895486,15.8205235 21.6777182,15.7927257 21.9086571,15.7927257 L23.0890057,15.7927257 L23.0890057,13.8040948 C22.9863662,13.7869883 22.7768137,13.7677436 22.4603418,13.7463604 C22.1438699,13.7249772 21.7803604,13.7142857 21.3698023,13.7142857 C20.9421376,13.7142857 20.5529686,13.7784345 20.2022836,13.9067339 C19.8515985,14.0350333 19.5500995,14.2232029 19.2977773,14.4712484 C19.0454551,14.7192939 18.8487323,15.0272079 18.707603,15.3949995 C18.5664736,15.7627911 18.49591,16.1861728 18.49591,16.6651573 L18.49591,18.3073814 L16.5714286,18.3073814 L16.5714286,20.5397799 L18.49591,20.5397799 L18.49591,26.2619048 L20.8052878,26.2619048 Z" fill="#000000"></path>
                </g>
            </g>
        </g>
    </g>
</svg>