
<svg width="40px" height="40px" viewBox="0 0 40 40" version="1.1" xmlns="http://www.w3.org/2000/svg" xmlns:xlink="http://www.w3.org/1999/xlink">
    <g id="Desktop" stroke="none" stroke-width="1" fill="none" fill-rule="evenodd">
        <g id="Bouw-detail-(beeld+tekst)" transform="translate(-905.000000, -1581.000000)">
            <g id="share" transform="translate(845.000000, 1538.000000)">
                <g id="twitter" transform="translate(60.000000, 43.000000)">
                    <rect id="Background" stroke="#000000" transform="translate(20.000000, 20.000000) scale(-1, 1) translate(-20.000000, -20.000000) " x="0.5" y="0.5" width="39" height="39"></rect>
                    <path d="M25.2347375,17.4531441 C25.2644487,18.069651 25.2124549,18.6917195 25.0787546,19.3193681 C24.9450543,19.9470168 24.7370791,20.550516 24.454823,21.129884 C24.1725668,21.709252 23.8178949,22.2514729 23.3907967,22.7565629 C22.9636985,23.2616529 22.4679007,23.7017431 21.9033883,24.0768468 C21.3388759,24.4519504 20.7093797,24.7472008 20.014881,24.9626068 C19.3203822,25.1780129 18.5646154,25.2857143 17.747558,25.2857143 C17.0047785,25.2857143 16.2935779,25.1835836 15.6139347,24.9793193 C14.9342915,24.7750549 14.3010815,24.4835184 13.7142857,24.1047009 C14.4124984,24.1864066 15.0977022,24.1344128 15.7699176,23.9487179 C16.442133,23.7630231 17.0567738,23.4510604 17.6138584,23.0128205 C17.3241744,23.0053927 17.0493501,22.9552559 16.7893773,22.8624084 C16.5294045,22.769561 16.2917186,22.6432904 16.0763126,22.4835928 C15.8609065,22.3238952 15.6733575,22.1326324 15.51366,21.9097985 C15.3539624,21.6869647 15.2332625,21.445565 15.1515568,21.1855922 C15.5600855,21.2598701 15.9574665,21.2450148 16.3437118,21.1410256 C16.0243167,21.0741755 15.734637,20.9590464 15.4746642,20.7956349 C15.2146914,20.6322234 14.990004,20.4335329 14.8005952,20.1995574 C14.6111865,19.9655819 14.4663467,19.703756 14.3660714,19.414072 C14.2657962,19.1243881 14.2193732,18.8272807 14.226801,18.5227411 C14.405068,18.6267303 14.594474,18.7065779 14.7950244,18.7622863 C14.9955749,18.8179948 15.20355,18.8495624 15.418956,18.8569902 C15.1292721,18.6564398 14.8915862,18.416897 14.7058913,18.1383547 C14.5201965,17.8598124 14.390212,17.5608482 14.3159341,17.241453 C14.2416561,16.9220578 14.2286577,16.5989536 14.2769383,16.2721306 C14.325219,15.9453077 14.4347773,15.633345 14.6056166,15.3362332 C15.2592625,16.138435 16.0521677,16.7827865 16.9843559,17.2693071 C17.9165441,17.7558276 18.9322798,18.028795 20.0315934,18.0882173 C19.9350321,17.6796886 19.9350321,17.2804507 20.0315934,16.8904915 C20.1281547,16.5005322 20.2971345,16.155145 20.5385379,15.8543193 C20.7799412,15.5534936 21.0789054,15.3120939 21.4354396,15.1301129 C21.7919737,14.948132 22.1819271,14.8571429 22.6053114,14.8571429 C22.9841289,14.8571429 23.3388007,14.9314197 23.6693376,15.0799756 C23.9998745,15.2285315 24.2839833,15.4290789 24.5216728,15.6816239 C24.8262123,15.6222016 25.115892,15.5386401 25.3907204,15.4309371 C25.6655488,15.3232341 25.9329454,15.1951066 26.1929182,15.0465507 C26.0963569,15.358518 25.9478032,15.6389131 25.7472527,15.8877442 C25.5467023,16.1365753 25.3090164,16.3426935 25.034188,16.506105 C25.3015886,16.468966 25.5615575,16.4169723 25.8141026,16.3501221 C26.0666476,16.2832719 26.3117611,16.1978536 26.5494505,16.0938645 C26.3711835,16.3538373 26.172493,16.5989508 25.953373,16.8292125 C25.7342531,17.0594741 25.4947103,17.2674492 25.2347375,17.4531441 Z" fill="#000000"></path>
                </g>
            </g>
        </g>
    </g>
</svg>